# xmcd
#
# Track frame offsets: 
#        150
#        16666
#        30504
#        46524
#        60120
#        75620
#        89328
#        102646
#        117652
#        135948
#        149457
#        170171
#
# Disc length: 2274 seconds
#
# Revision: 0
# Processed by: cddbd v1.4PL0 Copyright (c) Steve Scherf et al.
# Submitted via: ExactAudioCopy v0.95a3
#
DISCID=9108e00c
DTITLE=The Mickeys - Finding Our Way
DYEAR=2003
DGENRE=Country
TTITLE0=All I Ever Wanted Was You
TTITLE1=Still Haunts Me
TTITLE2=Smoke and Mirrors
TTITLE3=Dixie Wire
TTITLE4=Before You're Home
TTITLE5=My Way Again
TTITLE6=My Train
TTITLE7=Old Kentucky Wind
TTITLE8=I Want To Talk To You
TTITLE9=Dry Eyes
TTITLE10=Rainman
TTITLE11=Unknown
EXTD=
EXTT0=
EXTT1=
EXTT2=
EXTT3=
EXTT4=
EXTT5=
EXTT6=
EXTT7=
EXTT8=
EXTT9=
EXTT10=
EXTT11=
PLAYORDER=
